<?xml version="1.0" encoding="utf-8"?>
<!-- Generator: Adobe Illustrator 22.0.1, SVG Export Plug-In . SVG Version: 6.00 Build 0)  -->
<svg version="1.1" id="Layer_1" xmlns="http://www.w3.org/2000/svg" xmlns:xlink="http://www.w3.org/1999/xlink" x="0px" y="0px"
	 viewBox="0 0 213.7 189.1" style="enable-background:new 0 0 213.7 189.1;" xml:space="preserve">
<style type="text/css">
	.st0{fill:#E5AA26;}
	.st1{fill:#D52839;}
	.st2{opacity:0.1;fill:#231F20;enable-background:new    ;}
	.st3{fill:#231F20;}
	.st4{font-family:'Futura-Bold';}
	.st5{font-size:44.02px;}
	.st6{fill:#089CA3;stroke:#089CA3;stroke-width:2.11;stroke-miterlimit:10;}
	.st7{fill:#FFFBE6;}
	.st8{fill:#FFFDF8;}
	.st9{fill:#FDFCEA;}
	.st10{fill:#FFFFFF;}
	.st11{clip-path:url(#SVGID_2_);}
	.st12{opacity:0.1;}
	.st13{fill:#1E1F3F;stroke:#1F1F3E;stroke-width:2.68;stroke-miterlimit:10;}
	.st14{fill:#008048;}
	.st15{fill:#1E1F3F;}
	.st16{clip-path:url(#SVGID_4_);}
	.st17{fill:#8A1C3F;}
	.st18{fill:#089CA3;}
	.st19{fill:#465C91;}
	.st20{fill:#C9CFE2;}
	.st21{fill:#455E92;}
	.st22{fill:#75AC5A;}
	.st23{fill:#F3D89C;}
	.st24{fill:#A9B338;}
	.st25{fill:none;stroke:#231F20;stroke-width:0.61;stroke-miterlimit:10;}
	.st26{font-size:14.93px;}
	.st27{font-size:14.16px;}
</style>
<title>Asset 4</title>
<g>
	<g id="Layer_2_1_">
		<g id="Layer_1-2">
			
				<rect x="9" y="92.1" transform="matrix(0.2372 -0.9715 0.9715 0.2372 -65.9573 114.8323)" class="st0" width="62.3" height="14.7"/>
			
				<rect x="32.6" y="116.9" transform="matrix(0.2402 -0.9707 0.9707 0.2402 -94.9899 127.0519)" class="st1" width="2.2" height="14.7"/>
			
				<rect x="44.5" y="69.7" transform="matrix(0.2372 -0.9715 0.9715 0.2372 -40.092 103.0873)" class="st1" width="2.2" height="14.7"/>
			
				<rect x="34.4" y="113.2" transform="matrix(0.2372 -0.9715 0.9715 0.2372 -90.3692 125.9072)" class="st1" width="1.1" height="14.7"/>
			
				<rect x="12.2" y="96.6" transform="matrix(0.2402 -0.9707 0.9707 0.2402 -64.3904 118.258)" class="st2" width="62.3" height="7.3"/>
			<text transform="matrix(1 0 0 1 134.06 86.6)" class="st3 st4 st5">N</text>
			
				<image style="overflow:visible;opacity:0.1;enable-background:new    ;" width="84" height="43" xlink:href="12B36A2B837FF8B6.png"  transform="matrix(0.9767 0 0 0.9767 92.7567 81.35)">
			</image>
			<path class="st6" d="M173.8,81.1c-6.1,0-11,4.9-11,11s4.9,11,11,11h-50.9c-6.1,0-11-4.9-11-11s4.9-11,11-11H173.8z"/>
			<path class="st7" d="M117.3,85.2c1.9-1.8,4.5-2.9,7.2-2.8h49.6c-2.7,0-5.2,1-7.2,2.8H117.3z"/>
			<path class="st8" d="M117.3,85.2h49.6c-0.9,0.8-1.6,1.8-2.1,2.8h-49.6C115.8,86.9,116.5,86,117.3,85.2z"/>
			<path class="st9" d="M115.3,88h49.6c-0.4,0.9-0.7,1.8-0.8,2.7h-49.6C114.6,89.8,114.9,88.9,115.3,88z"/>
			<path class="st8" d="M114.3,92.1c0-0.5,0-0.9,0.1-1.4H164c-0.1,0.5-0.1,0.9-0.1,1.4c0,0.5,0,1,0.1,1.5h-49.6
				C114.4,93.1,114.3,92.6,114.3,92.1z"/>
			<path class="st9" d="M114.4,93.6H164c0.1,1,0.5,2,0.9,2.8h-49.6C114.9,95.5,114.6,94.6,114.4,93.6z"/>
			<path class="st10" d="M115.3,96.4h49.6c0.5,1.1,1.3,2,2.2,2.8h-49.6C116.6,98.5,115.9,97.5,115.3,96.4z"/>
			<path class="st7" d="M174.1,102h-49.6c-2.6,0-5.1-1-7-2.7h49.6C169,101,171.5,102,174.1,102z"/>
			<g>
				<defs>
					<rect id="SVGID_1_" x="108.6" y="92.2" width="66.9" height="13"/>
				</defs>
				<clipPath id="SVGID_2_">
					<use xlink:href="#SVGID_1_"  style="overflow:visible;"/>
				</clipPath>
				<g class="st11">
					<g class="st12">
						<path class="st3" d="M117.4,85.2c1.9-1.8,4.5-2.9,7.1-2.8h49.3c-2.7,0-5.2,1-7.1,2.8H117.4z"/>
						<path class="st3" d="M117.4,85.2h49.3c-0.9,0.8-1.6,1.8-2.1,2.8h-49.3C115.8,86.9,116.5,86,117.4,85.2z"/>
						<path class="st3" d="M115.3,88h49.3c-0.4,0.9-0.7,1.8-0.8,2.7h-49.3C114.6,89.8,114.9,88.9,115.3,88z"/>
						<path class="st3" d="M114.4,92.1c0-0.5,0-0.9,0.1-1.4h49.3c-0.1,0.5-0.1,0.9-0.1,1.4c0,0.5,0,1,0.1,1.5h-49.3
							C114.4,93.1,114.4,92.6,114.4,92.1z"/>
						<path class="st3" d="M114.5,93.6h49.3c0.2,1,0.5,2,0.9,2.8h-49.3C114.9,95.5,114.6,94.6,114.5,93.6z"/>
						<path class="st3" d="M115.4,96.4h49.3c0.5,1.1,1.3,2,2.1,2.8h-49.3C116.6,98.5,115.9,97.5,115.4,96.4z"/>
						<path class="st3" d="M173.8,102h-49.3c-2.6,0-5.1-1-7-2.7h49.3C168.7,101,171.2,102,173.8,102z"/>
					</g>
				</g>
			</g>
			<path class="st13" d="M106.6,105c6.9,0,12.5,5.6,12.5,12.5s-5.6,12.5-12.5,12.5h60c6.9-0.2,12.4-6,12.2-12.9
				c-0.2-6.7-5.5-12-12.2-12.2L106.6,105z"/>
			<path class="st14" d="M166.9,103.7c5.8,0,10.6,6.2,10.6,13.8s-4.7,13.8-10.6,13.8"/>
			<path class="st14" d="M167.4,131.3h-5.8c5.8,0,10.5-6.2,10.5-13.8s-4.7-13.8-10.5-13.8h5.8"/>
			<path class="st15" d="M161.6,103.7c6.9,0,12.6,6.2,12.6,13.8s-5.6,13.8-12.6,13.8"/>
			<path class="st14" d="M156.2,103.7c6.9,0,12.4,6.2,12.4,13.8s-5.6,13.8-12.4,13.8"/>
			<path class="st14" d="M156.9,131.3H150c6.9,0,12.4-6.2,12.4-13.8s-5.6-13.8-12.4-13.8h6.9"/>
			<path class="st15" d="M150,103.7c8.2,0,14.8,6.2,14.8,13.8s-6.6,13.8-14.8,13.8"/>
			<path class="st7" d="M152.5,109.6c-1.9-2.1-4.6-3.2-7.4-3.2h-38.8c2.8,0,5.5,1.2,7.4,3.2L152.5,109.6z"/>
			<path class="st8" d="M152.5,109.6h-38.8c0.9,0.9,1.6,2,2.1,3.2h38.8C154.1,111.7,153.4,110.6,152.5,109.6z"/>
			<path class="st9" d="M154.6,112.9h-38.8c0.4,1,0.7,2,0.9,3.1h38.8C155.4,114.9,155.1,113.9,154.6,112.9z"/>
			<path class="st8" d="M155.6,117.5c0-0.5,0-1-0.1-1.5h-38.8c0.1,0.5,0.1,1,0.1,1.6c0,0.6,0,1.1-0.1,1.7h38.8
				C155.6,118.7,155.6,118.1,155.6,117.5z"/>
			<path class="st9" d="M155.5,119.2h-38.8c-0.2,1.1-0.5,2.2-0.9,3.2h38.8C155,121.4,155.3,120.3,155.5,119.2z"/>
			<path class="st10" d="M154.6,122.5h-38.8c-0.5,1.2-1.3,2.3-2.2,3.2h38.8C153.3,124.8,154,123.7,154.6,122.5z"/>
			<path class="st7" d="M106.3,128.8h38.8c2.7,0,5.3-1.1,7.2-3.1h-38.8C111.7,127.7,109,128.8,106.3,128.8z"/>
			<g>
				<defs>
					<rect id="SVGID_3_" x="104.8" y="117.8" width="53.6" height="11.2"/>
				</defs>
				<clipPath id="SVGID_4_">
					<use xlink:href="#SVGID_3_"  style="overflow:visible;"/>
				</clipPath>
				<g class="st16">
					<g class="st12">
						<path class="st3" d="M398.2,286.5c-5-5.4-11.9-8.4-19.2-8.5H277.6c7.3,0,14.3,3.1,19.3,8.5H398.2z"/>
						<path class="st3" d="M398.2,286.5H296.9c2.3,2.5,4.2,5.3,5.6,8.5h101.4C402.5,291.8,400.6,289,398.2,286.5z"/>
						<path class="st3" d="M403.8,294.9H302.5c1.1,2.6,1.9,5.3,2.3,8.1h101.4C405.7,300.2,404.9,297.5,403.8,294.9z"/>
						<path class="st3" d="M406.4,307.1c0-1.3-0.1-2.7-0.2-4H304.8c0.2,1.3,0.2,2.7,0.2,4c0,1.5-0.1,3-0.3,4.4h101.4
							C406.3,310,406.4,308.5,406.4,307.1z"/>
						<path class="st3" d="M406.1,311.5H304.7c-0.4,2.9-1.2,5.8-2.4,8.5h101.4C404.9,317.3,405.7,314.4,406.1,311.5z"/>
						<path class="st3" d="M403.6,320H302.3c-1.4,3.1-3.4,6-5.8,8.5h101.4C400.3,326,402.2,323.1,403.6,320z"/>
						<path class="st3" d="M277.6,336.5H379c7.1,0,14-2.9,18.9-8.1H296.5C291.6,333.6,284.7,336.5,277.6,336.5z"/>
					</g>
				</g>
			</g>
			
				<ellipse transform="matrix(0.1687 -0.9857 0.9857 0.1687 75.4665 144.7878)" class="st10" cx="123.6" cy="27.7" rx="12.1" ry="18.4"/>
			<path class="st10" d="M124.9,37.5c1.8,1.3,4.4,1.8,5.3,4.1c0.3,0.9,0.4,1.8,0.4,2.7c0,0.5-0.1,1.1-0.3,1.6
				c-0.2,0.6-1.2,1.5-0.2,0.6c-0.8,0.8-1.3,2-2.1,2.7c1.8-1.6,3.3-3.5,4.3-5.7c0.7-1.6,0.6-3.5-0.2-5.1c-1.1-1.8-3.4-2.4-5.1-3.5
				C127,34.8,124.9,37.5,124.9,37.5L124.9,37.5z"/>
			<text transform="matrix(1 0 0 1 100.48 85.31)" class="st3 st4 st5">A</text>
			<circle class="st3" cx="118.1" cy="48.8" r="4.1"/>
			<rect x="88.2" y="53.7" class="st1" width="18.5" height="77.6"/>
			<rect x="88.2" y="123" class="st17" width="18.5" height="2.8"/>
			<rect x="88.2" y="62.5" class="st17" width="18.5" height="2.8"/>
			<rect x="88.2" y="118.9" class="st17" width="18.5" height="1.4"/>
			<rect x="97.5" y="53.7" class="st2" width="9.3" height="77.6"/>
			<text transform="matrix(1 0 0 1 34.07 65.27)" class="st3 st4 st5">U</text>
			<rect x="54.7" y="40.2" class="st18" width="22.2" height="91.2"/>
			<rect x="54.7" y="121.6" class="st19" width="22.2" height="3.3"/>
			<rect x="54.7" y="50.5" class="st20" width="22.2" height="3.3"/>
			<rect x="54.7" y="116.7" class="st21" width="22.2" height="1.6"/>
			<rect x="66.4" y="40.2" class="st2" width="11.1" height="91.2"/>
			<rect x="76.9" y="27.5" class="st22" width="11.3" height="103.9"/>
			<rect x="76.9" y="120.3" class="st23" width="11.3" height="3.7"/>
			<rect x="76.9" y="39.3" class="st24" width="11.3" height="3.7"/>
			<rect x="76.9" y="114.7" class="st23" width="11.3" height="1.8"/>
			<rect x="82.6" y="27.5" class="st2" width="5.7" height="103.9"/>
			<text transform="matrix(1 0 0 1 61.3 77.06)" class="st3 st4 st5">M</text>
			<text transform="matrix(1 0 0 1 0 56.58)" class="st3 st4 st5">H</text>
			<text transform="matrix(1 0 0 1 13.25 164.28)" class="st3 st4 st5">L</text>
			<text transform="matrix(1 0 0 1 50.5 165.45)" class="st3 st4 st5">B</text>
			<text transform="matrix(1 0 0 1 76.91 165.45)" class="st3 st4 st5">R</text>
			<text transform="matrix(1 0 0 1 108.58 165.45)" class="st3 st4 st5">A</text>
			<text transform="matrix(1 0 0 1 142.05 165.45)" class="st3 st4 st5">R</text>
			<text transform="matrix(1 0 0 1 168.63 165.45)" class="st3 st4 st5">Y</text>
			<text transform="matrix(0.9956 9.410831e-02 -9.410831e-02 0.9956 36.58 163.9)" class="st3 st4 st5">I</text>
			<circle class="st3" cx="47.9" cy="127.2" r="4"/>
			<line class="st25" x1="0.6" y1="0.3" x2="20.7" y2="0.3"/>
			<text transform="matrix(1 0 0 1 0 17.06)" class="st3 st4 st26">t</text>
			<text transform="matrix(1 0 0 1 5.91 17.06)" class="st3 st4 st26">he</text>
			<text transform="matrix(1 0 0 1 148.01 177.78)" class="st3 st4 st27">p</text>
			<text transform="matrix(1 0 0 1 157.94 177.78)" class="st3 st4 st27">r</text>
			<text transform="matrix(1 0 0 1 164.59 177.78)" class="st3 st4 st27">oject</text>
		</g>
	</g>
</g>
</svg>
